<svg enable-background="new 0 0 1101.6 160.5" viewBox="0 0 1101.6 160.5" xmlns="http://www.w3.org/2000/svg"><g fill="#144367"><path d="m65.2 142.7h-56.5c-6.4 0-8.7-2.3-8.7-8.8 0-37.5 0-74.9 0-112.3 0-6.8 2.2-9 9-9h109.5c1.6 0 3.2 0 4.7.1 4.7.5 6.8 2.7 6.8 7.4v37.6 76.3c0 6.5-2.2 8.7-8.7 8.7zm32-57.3c17.5-.9 26.6-8.3 22.7-18.5-2.9 4-7 4.4-11.4 3.9-2.5-.3-4.9-1.1-7.3-1.4-3.1-.4-4.4-1.7-4.2-5.1.3-8 .1-16 .1-24h-9.1v24.6c-7.7-3.5-14.9-5.7-22.5-4s-13.5 6.2-17.5 13.1c5.4 0 10.8-1 15.5.2 7.7 2 15.1 5.3 22.5 8.3 1 .7 1.5 1.8 1.5 3-.4 7-3.3 12.8-9.1 16.7-7.3 4.9-15.1 5.2-22.8 1.3-8.2-4.1-11.6-11.3-11.7-20.1-.1-12.9 0-25.8 0-38.7v-4.6h-18.1c0 16 0 31.8.1 47.6.1 2 .6 3.9 1.2 5.7 6.6 21.5 36.1 31 55.6 18 9.2-6.2 13.5-15.1 14.5-26z"/><text font-family="'ArialMT'" font-size="55.0091" transform="translate(151.125 142.6626)">University of Antwerp</text><text font-family="'Arial-BoldMT'" font-size="89.5679" transform="translate(151.125 76.8413)">Global Health Institute</text></g></svg>